<svg version="1.1" viewBox="0.0 0.0 3294.9921259842517 1023.8740157480315" fill="none" stroke="none" stroke-linecap="square" stroke-miterlimit="10" xmlns:xlink="http://www.w3.org/1999/xlink" xmlns="http://www.w3.org/2000/svg"><clipPath id="p.0"><path d="m0 0l3294.9922 0l0 1023.874l-3294.9922 0l0 -1023.874z" clip-rule="nonzero"/></clipPath><g clip-path="url(#p.0)"><path fill="#000000" fill-opacity="0.0" d="m0 0l3294.9922 0l0 1023.874l-3294.9922 0z" fill-rule="evenodd"/><path fill="#f75590" d="m968.41034 498.3279l0 0c0 -50.036133 -40.562256 -90.59842 -90.59839 -90.59842l-769.98425 0c-24.028198 0 -47.07226 9.545166 -64.06276 26.535645c-16.9905 16.990509 -26.535664 40.034576 -26.535664 64.062775l0 0l0 0c0 50.036102 40.562298 90.59842 90.59843 90.59842l769.98425 0c50.036133 0 90.59839 -40.562317 90.59839 -90.59842z" fill-rule="evenodd"/><path fill="#f75590" d="m877.7868 38.47209l0 0c-50.036133 0 -90.59845 40.562294 -90.59845 90.59842l0 769.98425c0 24.028198 9.545166 47.072266 26.535645 64.062805c16.99054 16.990479 40.034607 26.535645 64.062805 26.535645l0 0l0 0c50.036133 0 90.59839 -40.562317 90.59839 -90.59845l0 -769.98425c0 -50.036125 -40.562256 -90.59842 -90.59839 -90.59842z" fill-rule="evenodd"/><path fill="#f75590" d="m107.83989 38.47209l0 0c-50.03613 0 -90.59843 40.562294 -90.59843 90.59842l0 366.14172l0 0c0 24.028168 9.545164 47.072235 26.535666 64.062775c16.990498 16.990479 40.03456 26.535645 64.06276 26.535645l0 0l0 0c50.036133 0 90.59842 -40.562317 90.59842 -90.59842l0 -366.14172c0 -50.036125 -40.562286 -90.59842 -90.59842 -90.59842z" fill-rule="evenodd"/><path fill="#f75590" d="m1172.5538 129.07051l0 0c0 -50.036125 40.562256 -90.59842 90.59839 -90.59842l769.98425 0c24.02832 0 47.072266 9.545166 64.062744 26.535667c16.990479 16.990501 26.535645 40.03456 26.535645 64.06275l0 0l0 0c0 50.036133 -40.562256 90.598434 -90.59839 90.598434l-769.98425 0c-50.036133 0 -90.59839 -40.5623 -90.59839 -90.598434z" fill-rule="evenodd"/><path fill="#f75590" d="m1263.1832 38.47209l0 0c50.036133 0 90.59839 40.562294 90.59839 90.59842l0 769.98425c0 24.028198 -9.545166 47.072266 -26.535645 64.062805c-16.990479 16.990479 -40.034546 26.535645 -64.062744 26.535645l0 0l0 0c-50.036133 0 -90.59851 -40.562317 -90.59851 -90.59845l0 -769.98425c0 -50.036125 40.562378 -90.59842 90.59851 -90.59842z" fill-rule="evenodd"/><path fill="#f75590" d="m2033.1274 38.47209l0 0c50.036133 0 90.59839 40.562294 90.59839 90.59842l0 769.98425c0 24.028198 -9.545166 47.072266 -26.535645 64.062805c-16.990479 16.990479 -40.034424 26.535645 -64.062744 26.535645l0 0l0 0c-50.036133 0 -90.59839 -40.562317 -90.59839 -90.59845l0 -769.98425c0 -50.036125 40.562256 -90.59842 90.59839 -90.59842z" fill-rule="evenodd"/><path fill="#f75590" d="m1172.5433 899.0469l0 0c0 -50.036133 40.562256 -90.59839 90.59839 -90.59839l769.98425 0c24.02832 0 47.072266 9.545166 64.062744 26.535645c16.990479 16.990479 26.535645 40.034546 26.535645 64.062744l0 0l0 0c0 50.036133 -40.562256 90.59845 -90.59839 90.59845l-769.98425 0c-50.036133 0 -90.59839 -40.562317 -90.59839 -90.59845z" fill-rule="evenodd"/><path fill="#f75590" d="m3279.085 496.26492l0 0c0 -50.036133 -40.562256 -90.59845 -90.59839 -90.59845l-769.9844 0c-24.028076 0 -47.072266 9.545166 -64.062744 26.535675c-16.990479 16.990509 -26.535645 40.034576 -26.535645 64.062775l0 0l0 0c0 50.036102 40.562256 90.59842 90.59839 90.59842l769.9844 0c50.036133 0 90.59839 -40.562317 90.59839 -90.59842z" fill-rule="evenodd"/><path fill="#f75590" d="m3188.4614 36.4091l0 0c-50.036133 0 -90.59863 40.562298 -90.59863 90.59842l0 769.98425c0 24.028198 9.545166 47.072266 26.535645 64.062805c16.990723 16.990479 40.034668 26.535645 64.06299 26.535645l0 0l0 0c50.036133 0 90.59839 -40.562317 90.59839 -90.59845l0 -769.98425c0 -50.036125 -40.562256 -90.59842 -90.59839 -90.59842z" fill-rule="evenodd"/><path fill="#f75590" d="m2418.5144 36.4091l0 0c-50.036133 0 -90.59839 40.562298 -90.59839 90.59842l0 366.14172l0 0c0 24.028168 9.545166 47.072235 26.535645 64.062775c16.990479 16.990479 40.034668 26.535645 64.062744 26.535645l0 0l0 0c50.036133 0 90.59839 -40.562317 90.59839 -90.59842l0 -366.14172c0 -50.036125 -40.562256 -90.59842 -90.59839 -90.59842z" fill-rule="evenodd"/></g></svg>